<?xml version="1.0" encoding="UTF-8"?>
<svg version="1.1" xmlns="http://www.w3.org/2000/svg" width="491" height="508">
<path d="M0 0 C1.49464511 2.56111201 2.81529871 5.07657089 4.09765625 7.7421875 C4.68299889 8.92758621 4.68299889 8.92758621 5.28016663 10.13693237 C6.54979722 12.71203898 7.80590302 15.29351209 9.0625 17.875 C10.37126426 20.53525273 11.68374955 23.19363998 12.99717712 25.85159302 C13.82586291 27.53057639 14.65216306 29.21074022 15.4756012 30.89230347 C18.95419233 37.98119722 22.6337762 44.95624869 26.3515625 51.921875 C30.59283734 59.96696844 34.58448624 68.14267557 38.63684082 76.28393555 C42.97934518 85.00460395 47.36159189 93.69048048 51.96166992 102.27880859 C57.63392061 112.95891751 62.93892725 123.83335127 68.31396484 134.66503906 C69.1114073 136.26900271 69.90908968 137.8728471 70.70703125 139.4765625 C71.0874054 140.24274902 71.46777954 141.00893555 71.85968018 141.79833984 C74.15493575 146.39517506 76.54634138 150.9007407 79.22924805 155.28662109 C80 157 80 157 80 161 C75.66378078 163.28910976 71.32212531 165.56741985 66.97509766 167.8359375 C65.49731891 168.60903922 64.02106425 169.38506156 62.54638672 170.1640625 C60.4254998 171.28377654 58.29934004 172.39284662 56.171875 173.5 C55.51443298 173.84998047 54.85699097 174.19996094 54.17962646 174.56054688 C50.77002321 176.32119918 48.92808623 177 45 177 C44.74658844 176.49095627 44.49317688 175.98191254 44.23208618 175.45744324 C41.54060192 170.05196613 38.84605685 164.64802218 36.14990234 159.24487305 C35.15045379 157.24101549 34.15172951 155.23679649 33.15380859 153.23217773 C27.73899177 142.3561937 22.26408473 131.52283748 16.57194519 120.78913879 C12.38910149 112.88595793 8.40446541 104.88813811 4.4375 96.875 C3.042671 94.05874367 1.64514693 91.24384721 0.24609375 88.4296875 C-0.06735489 87.79449188 -0.38080353 87.15929626 -0.70375061 86.50485229 C-2.05739632 83.55433707 -2.05739632 83.55433707 -4 81 C-19.72751843 113.09528484 -19.72751843 113.09528484 -35.39065552 145.22201538 C-36.07427376 146.62797355 -36.75823866 148.03376323 -37.44259644 149.43936157 C-41.4259415 157.6225907 -45.35402941 165.8291936 -49.20555115 174.07540894 C-51.97071552 179.98430426 -54.86348708 185.82540623 -57.8046875 191.6484375 C-58.15370117 192.3403418 -58.50271484 193.03224609 -58.86230469 193.74511719 C-59.23774414 194.48922852 -59.61318359 195.23333984 -60 196 C-61.81581863 199.60250648 -63.6273828 203.20712595 -65.4375 206.8125 C-65.85555908 207.64031982 -66.27361816 208.46813965 -66.7043457 209.32104492 C-69.78879277 215.46603765 -72.75010028 221.66551696 -75.68774414 227.8815918 C-76.10344917 228.76025658 -76.51915421 229.63892136 -76.94745636 230.54421234 C-77.96538911 232.6959442 -78.98289257 234.84787793 -80 237 C-66.39415637 237.23176492 -52.78830748 237.46321811 -39.18245208 237.69429111 C-31.68713034 237.82159177 -24.1918119 237.94908133 -16.69650269 238.07711792 C-8.57501851 238.21584565 -0.45352899 238.35425627 7.66796875 238.4921875 C8.33493845 238.5035166 9.00190815 238.5148457 9.68908906 238.52651811 C25.39814433 238.79319765 41.10722488 239.05485555 56.81684113 239.28642845 C59.06139128 239.31954686 61.30593449 239.35310114 63.55047607 239.38679504 C69.90680401 239.48195643 76.26314732 239.57360825 82.61962891 239.65795898 C115.15551992 240.11647683 115.15551992 240.11647683 120 243 C121.51029732 245.33630845 122.68876689 247.46672062 123.85546875 249.96484375 C124.20201004 250.67161758 124.54855133 251.37839142 124.90559387 252.10658264 C126.01490404 254.3764708 127.10185245 256.65621388 128.1875 258.9375 C129.61313637 261.8867222 131.04718127 264.83183411 132.48046875 267.77734375 C132.84389374 268.52833344 133.20731873 269.27932312 133.58175659 270.05307007 C136.25570101 275.55403703 139.05750706 280.97703112 141.92578125 286.37890625 C147.56315574 296.99632577 152.9093617 307.75161136 158.25 318.52050781 C163.20278393 328.49959357 168.23944598 338.42170703 173.4543457 348.26660156 C177.08192789 355.12388818 180.56151631 362.04572904 184 369 C188.05760133 377.17216124 192.16187837 385.31421042 196.4375 393.375 C199.36526759 398.90061244 202.28873001 404.42669663 205.125 410 C205.68445313 411.093125 206.24390625 412.18625 206.8203125 413.3125 C208 416 208 416 208 419 C207.18845459 419.4031543 206.37690918 419.80630859 205.54077148 420.22167969 C202.50023118 421.73337546 199.46063217 423.24693294 196.42163086 424.76171875 C195.11177609 425.41414795 193.8015616 426.06585552 192.4909668 426.71679688 C190.59586674 427.65821039 188.70212062 428.60230198 186.80859375 429.546875 C185.67220459 430.11245117 184.53581543 430.67802734 183.36499023 431.26074219 C179.97375233 432.93157919 179.97375233 432.93157919 176.91941833 435.07458496 C172.3615873 437.66899425 168.06751531 437.57369401 162.92431641 437.54589844 C161.91448574 437.55622762 160.90465508 437.5665568 159.86422348 437.57719898 C156.44318028 437.6070395 153.02272765 437.6081226 149.6015625 437.609375 C147.0880942 437.62464212 144.57463535 437.64153622 142.06118774 437.65989685 C135.80146612 437.70052103 129.54191995 437.72170159 123.28208649 437.73421031 C118.09600965 437.74504709 112.91002614 437.764433 107.72399902 437.78945923 C85.98888921 437.89372891 64.25386702 437.94621963 42.51854753 437.98298937 C34.71764119 437.99639596 26.91674336 438.01268032 19.11584473 438.02996826 C-12.65456956 438.0999565 -44.42495237 438.14939886 -76.19543278 438.17650354 C-83.9151566 438.18328522 -91.63487293 438.19250934 -99.35459173 438.20358616 C-111.73613691 438.22134073 -124.11764878 438.23241471 -136.49920785 438.2300511 C-142.24906712 438.22906338 -147.99887907 438.23123128 -153.74872971 438.24181938 C-159.0699598 438.25145248 -164.39110553 438.25166837 -169.71233869 438.24446154 C-171.64889761 438.24344844 -173.58546182 438.24581967 -175.52201152 438.25188208 C-178.16083233 438.25960587 -180.79935693 438.25495176 -183.43817139 438.24723816 C-184.57314058 438.25495315 -184.57314058 438.25495315 -185.73103845 438.262824 C-192.48310899 438.21929862 -198.65958393 436.95462592 -204.71875 433.8359375 C-205.89824219 433.23652344 -205.89824219 433.23652344 -207.1015625 432.625 C-207.89304687 432.2125 -208.68453125 431.8 -209.5 431.375 C-210.73363281 430.74464844 -210.73363281 430.74464844 -211.9921875 430.1015625 C-213.99868068 429.07498459 -216.00100849 428.04108809 -218 427 C-216.70797164 423.6941428 -215.31814585 420.47238355 -213.78515625 417.27148438 C-213.35211182 416.36603882 -212.91906738 415.46059326 -212.47290039 414.52770996 C-212.00746826 413.55950317 -211.54203613 412.59129639 -211.0625 411.59375 C-210.57450928 410.57623657 -210.08651855 409.55872314 -209.58374023 408.51037598 C-204.91102156 398.78360698 -200.17630563 389.08753751 -195.4229126 379.3999939 C-192.94371228 374.34721285 -190.46811802 369.29266513 -187.9921875 364.23828125 C-187.49331024 363.2200679 -186.99443298 362.20185455 -186.48043823 361.15278625 C-180.52609997 348.99675189 -174.60030322 336.82683543 -168.67578125 324.65625 C-168.10837723 323.49069328 -168.10837723 323.49069328 -167.5295105 322.30158997 C-166.82716453 320.85869375 -166.12494686 319.41573508 -165.42288208 317.97270203 C-163.10807915 313.2161583 -163.10807915 313.2161583 -162 311 C-158.07929575 311.61220742 -155.00343802 312.82232558 -151.47265625 314.6171875 C-150.43302734 315.14183594 -149.39339844 315.66648437 -148.32226562 316.20703125 C-147.24654297 316.75746094 -146.17082031 317.30789063 -145.0625 317.875 C-143.99064453 318.41769531 -142.91878906 318.96039063 -141.81445312 319.51953125 C-139.80988442 320.5348484 -137.80656237 321.55263351 -135.80493164 322.57373047 C-132.87663668 324.06272857 -129.93975781 325.53378257 -127 327 C-127.63761194 331.84371747 -129.64701604 335.75167657 -131.796875 340.0703125 C-132.38109222 341.26211624 -132.38109222 341.26211624 -132.97711182 342.47799683 C-134.2292845 345.02972355 -135.48931222 347.5774711 -136.75 350.125 C-144.58808202 366.04223819 -152.302479 382.012841 -160 398 C-56.38 398 47.24 398 154 398 C144.6873889 379.30298736 144.6873889 379.30298736 135.08154297 360.82128906 C129.94523492 351.12883864 125.12234353 341.27400152 120.23294067 331.45562744 C112.91639589 316.76431569 112.91639589 316.76431569 105.29296875 302.23046875 C102.72112468 297.44116858 100.28221956 292.59038482 97.85620117 287.72607422 C97.48501915 286.98272324 97.11383713 286.23937225 96.73140717 285.47349548 C95.82053959 283.64919592 94.91021558 281.82462496 94 280 C93.14029004 279.9854606 92.28058008 279.97092119 91.39481831 279.9559412 C70.33799788 279.59965284 49.28122747 279.24052617 28.22450733 278.87835789 C18.04105162 278.70327229 7.85758195 278.52909783 -2.32592773 278.35717773 C-11.21657344 278.2070816 -20.10718599 278.05516457 -28.99776536 277.90118736 C-33.6918662 277.81994982 -38.38597745 277.73953794 -43.08012962 277.66131783 C-52.43250984 277.50500145 -61.78448547 277.33874354 -71.13606983 277.13991135 C-75.59845563 277.04562274 -80.06065996 276.96740478 -84.52358383 276.9037841 C-87.8172651 276.85205769 -91.11028323 276.77567851 -94.40356445 276.70288086 C-95.54796336 276.69163209 -96.69236227 276.68038332 -97.87143993 276.66879368 C-105.02090428 276.47863969 -110.56200748 275.09948188 -117 272 C-118.42530029 271.36626465 -118.42530029 271.36626465 -119.87939453 270.71972656 C-120.62302246 270.36362305 -121.36665039 270.00751953 -122.1328125 269.640625 C-122.9578125 269.24746094 -123.7828125 268.85429687 -124.6328125 268.44921875 C-125.45523438 268.05347656 -126.27765625 267.65773438 -127.125 267.25 C-127.98609375 266.83878906 -128.8471875 266.42757813 -129.734375 266.00390625 C-131.82427476 265.00539859 -133.91277336 264.00408008 -136 263 C-135.33497657 259.91848087 -134.29194895 257.28955558 -132.92456055 254.45263672 C-132.49448196 253.55634552 -132.06440338 252.66005432 -131.62129211 251.73660278 C-131.1520079 250.76907074 -130.68272369 249.8015387 -130.19921875 248.8046875 C-129.46417366 247.27906693 -129.46417366 247.27906693 -128.71427917 245.72262573 C-123.65673978 235.24495982 -118.53473951 224.79868461 -113.40170288 214.35784912 C-110.65288733 208.76604833 -107.90831992 203.17216386 -105.1640625 197.578125 C-104.62539047 196.48011566 -104.08671844 195.38210632 -103.53172302 194.25082397 C-99.22624901 185.4704797 -94.94605101 176.67818456 -90.6875 167.875 C-84.87649646 155.86404805 -79.03985923 143.8658605 -73.1875 131.875 C-72.3399208 130.13818571 -71.49234592 128.4013693 -70.64477539 126.66455078 C-69.36999771 124.05240038 -68.0951921 121.44026362 -66.82032776 118.82815552 C-62.65468866 110.29297849 -58.49030894 101.75718881 -54.32897949 93.21990967 C-53.52891074 91.57860468 -52.72870007 89.93736887 -51.92834473 88.29620361 C-47.94841131 80.13445016 -43.97655048 71.96921817 -40.05078125 63.78125 C-34.72864744 52.68527422 -29.41185707 41.61066839 -23.55126953 30.78588867 C-21.34961582 26.68910028 -19.31613509 22.5598929 -17.41015625 18.31640625 C-16.97541992 17.35798828 -16.54068359 16.39957031 -16.09277344 15.41210938 C-15.26346805 13.5662565 -14.45170424 11.71238072 -13.66113281 9.84960938 C-11.05700605 4.07107659 -7.30894386 -2.43631462 0 0 Z " fill="#F6303C" transform="translate(247,17)"/>
<path d="M0 0 C0.99 0 1.98 0 3 0 C0.12095695 8.63712915 -4.10255914 16.7720693 -8 25 C95.62 25 199.24 25 306 25 C306.33 24.34 306.66 23.68 307 23 C307 24.32 307 25.64 307 27 C202.39 27 97.78 27 -10 27 C-10 25.02 -10 23.04 -10 21 C-9.34 21 -8.68 21 -8 21 C-8 19.68 -8 18.36 -8 17 C-7.34 17 -6.68 17 -6 17 C-6 15.68 -6 14.36 -6 13 C-5 12 -4 11 -3 10 C-2.27802838 7.39388923 -2.27802838 7.39388923 -2 5 C-1.34 5 -0.68 5 0 5 C0 3.35 0 1.7 0 0 Z " fill="#EE888E" transform="translate(95,390)"/>
<path d="M0 0 C1.98 0.33 3.96 0.66 6 1 C-3.76865931 8.49838265 -11.45778589 10.886106 -23.76200867 10.7215271 C-25.23168839 10.72414818 -26.70136534 10.72941014 -28.17102748 10.7370621 C-32.18269682 10.75039961 -36.19339453 10.7265897 -40.2049402 10.69639373 C-44.54084552 10.67037525 -48.87670027 10.67925877 -53.21266174 10.68380737 C-60.71603464 10.68694672 -68.21909342 10.66819296 -75.72238731 10.63438034 C-86.57070686 10.58552573 -97.41887521 10.56998224 -108.26729283 10.56245239 C-125.86993162 10.54933506 -143.47240315 10.50944468 -161.07495117 10.45263672 C-178.16966925 10.39752518 -195.26434183 10.35507293 -212.35913086 10.32958984 C-213.41363734 10.3280135 -214.46814381 10.32643716 -215.55460503 10.32481305 C-220.84498899 10.31698258 -226.13537327 10.30940039 -231.42575777 10.30194163 C-275.28395433 10.23978628 -319.14196851 10.13414672 -363 10 C-363 9.67 -363 9.34 -363 9 C-247.17 9 -131.34 9 -12 9 C-12.33 8.01 -12.66 7.02 -13 6 C-10.69 6 -8.38 6 -6 6 C-6 5.34 -6 4.68 -6 4 C-4.02 3.34 -2.04 2.68 0 2 C0 1.34 0 0.68 0 0 Z " fill="#D34148" transform="translate(431,443)"/>
<path d="M0 0 C0.33 0.66 0.66 1.32 1 2 C14.60584363 2.23176492 28.21169252 2.46321811 41.81754792 2.69429111 C49.31286966 2.82159177 56.8081881 2.94908133 64.30349731 3.07711792 C72.42498149 3.21584565 80.54647101 3.35425627 88.66796875 3.4921875 C89.6684233 3.50918115 89.6684233 3.50918115 90.68908906 3.52651811 C106.39814433 3.79319765 122.10722488 4.05485555 137.81684113 4.28642845 C140.06139128 4.31954686 142.30593449 4.35310114 144.55047607 4.38679504 C150.90680401 4.48195643 157.26314732 4.57360825 163.61962891 4.65795898 C174.44522862 4.81204685 185.20814623 5.09223324 196 6 C196 6.33 196 6.66 196 7 C163.66 7 131.32 7 98 7 C98 6.34 98 5.68 98 5 C96.21952271 5.00785522 96.21952271 5.00785522 94.40307617 5.01586914 C62.58851222 5.14291305 30.80565245 4.74482594 -1 4 C-0.67 2.68 -0.34 1.36 0 0 Z " fill="#EC7B7F" transform="translate(166,252)"/>
<path d="M0 0 C0.90494202 0.15952652 1.80988403 0.31905304 2.74224854 0.4834137 C8.18054832 1.25399315 13.64069847 1.20742363 19.12402344 1.26538086 C20.93922234 1.29004173 20.93922234 1.29004173 22.79109192 1.31520081 C25.42528657 1.35044358 28.05944419 1.38406298 30.69368744 1.41499138 C34.93854598 1.4650205 39.18328817 1.52236699 43.42803955 1.58070374 C54.02747969 1.72526603 64.62703582 1.86057785 75.22662354 1.99383545 C109.34993571 2.42310155 143.46803077 2.93154085 177.58147526 3.88018346 C179.81864735 3.94114798 182.05588461 3.99858409 184.29317474 4.05503654 C188.4136206 4.15967857 192.53340069 4.28089211 196.65332031 4.40454102 C197.88217201 4.43459543 199.11102371 4.46464985 200.37711334 4.49561501 C201.49123344 4.53211348 202.60535355 4.56861195 203.75323486 4.60621643 C204.72413685 4.63410028 205.69503883 4.66198412 206.69536209 4.69071293 C209 5 209 5 211 7 C211.125 10.125 211.125 10.125 211 13 C209.49440461 11.03617993 208.10868317 9.21736634 207 7 C206.14029004 6.9854606 205.28058008 6.97092119 204.39481831 6.9559412 C183.33799788 6.59965284 162.28122747 6.24052617 141.22450733 5.87835789 C131.04105162 5.70327229 120.85758195 5.52909783 110.67407227 5.35717773 C101.78342656 5.2070816 92.89281401 5.05516457 84.00223464 4.90118736 C79.3081338 4.81994982 74.61402255 4.73953794 69.91987038 4.66131783 C58.27934078 4.46688334 46.63935637 4.25586299 35 4 C34.25904068 3.98385194 33.51808135 3.96770389 32.75466871 3.95106649 C27.95131517 3.84437445 23.14896647 3.71678042 18.34643555 3.57788086 C16.57956375 3.53587099 16.57956375 3.53587099 14.77699757 3.49301243 C9.50864312 3.32309357 4.9158497 3.1263742 0 1 C0 0.67 0 0.34 0 0 Z " fill="#EE8F91" transform="translate(134,290)"/>
<path d="M0 0 C0.33 0.66 0.66 1.32 1 2 C59.41 2.99 59.41 2.99 119 4 C119 4.33 119 4.66 119 5 C108.56251111 5.03085468 98.12502728 5.05106624 87.6875 5.0625 C86.52368994 5.06378403 86.52368994 5.06378403 85.33636856 5.06509399 C56.54632609 5.09313001 27.78169402 4.73663583 -1 4 C-0.67 2.68 -0.34 1.36 0 0 Z " fill="#FAB8BB" transform="translate(166,252)"/>
<path d="M0 0 C4.11704694 0.72241198 7.30487372 2.02353711 11 4 C7.3558226 6.4294516 5.28758728 6.16179575 1 6 C1 6.66 1 7.32 1 8 C0.01 8.495 0.01 8.495 -1 9 C-1.33 9.99 -1.66 10.98 -2 12 C-2.66 12 -3.32 12 -4 12 C-3.7525 12.9075 -3.505 13.815 -3.25 14.75 C-3.12625 16.35875 -3.12625 16.35875 -3 18 C-4.31054623 19.35573748 -5.64748503 20.68612831 -7 22 C-7.93677168 24.65162694 -8.4460968 27.23048398 -9 30 C-10.32 30 -11.64 30 -13 30 C-13 31.32 -13 32.64 -13 34 C-14.485 34.495 -14.485 34.495 -16 35 C-13.63330158 27.01132484 -10.09608365 19.84479757 -6.3125 12.4375 C-5.69930687 11.22619626 -5.08667247 10.01460951 -4.47460938 8.80273438 C-2.98852447 5.86566893 -1.49688463 2.93157184 0 0 Z " fill="#EC8084" transform="translate(85,328)"/>
<path d="M0 0 C2.64 0 5.28 0 8 0 C3.2239524 3.76846913 -2.12744795 6.37535654 -7.5 9.1875 C-8.54542969 9.74630859 -9.59085937 10.30511719 -10.66796875 10.88085938 C-11.67472656 11.40873047 -12.68148438 11.93660156 -13.71875 12.48046875 C-14.63591797 12.96410889 -15.55308594 13.44774902 -16.49804688 13.94604492 C-19 15 -19 15 -23 15 C-23.86375896 13.38007835 -24.71575854 11.75388139 -25.5625 10.125 C-26.03816406 9.22007812 -26.51382812 8.31515625 -27.00390625 7.3828125 C-27.33261719 6.59648437 -27.66132813 5.81015625 -28 5 C-27.67 4.34 -27.34 3.68 -27 3 C-25.5 4.3125 -25.5 4.3125 -24 6 C-24 6.99 -24 7.98 -24 9 C-23.01 9.33 -22.02 9.66 -21 10 C-20.67 8.68 -20.34 7.36 -20 6 C-19.34 6 -18.68 6 -18 6 C-17.67 6.66 -17.34 7.32 -17 8 C-13.10848198 7.36798339 -9.83409319 6.19471541 -6.25 4.5625 C-5.28578125 4.13066406 -4.3215625 3.69882813 -3.328125 3.25390625 C-0.86898171 2.21747308 -0.86898171 2.21747308 0 0 Z " fill="#EF5A60" transform="translate(315,179)"/>
<path d="M0 0 C0 0.66 0 1.32 0 2 C0.66 2.33 1.32 2.66 2 3 C-19.36211184 3.11851633 -40.65529264 2.98016731 -62 2 C-62 1.67 -62 1.34 -62 1 C-54.21151615 0.86942042 -46.42302934 0.73901961 -38.63453865 0.60884857 C-35.01823912 0.54840278 -31.40194066 0.48789484 -27.78564453 0.42724609 C-24.29732374 0.36874588 -20.80900028 0.31040732 -17.3206749 0.25218201 C-15.33862879 0.21905612 -13.3565855 0.18576176 -11.37454224 0.15246582 C-10.17344818 0.13244507 -8.97235413 0.11242432 -7.73486328 0.09179688 C-6.67341095 0.07403198 -5.61195862 0.05626709 -4.51834106 0.03796387 C-3.01234533 0.01526106 -1.50616685 0 0 0 Z " fill="#E33941" transform="translate(338,292)"/>
<path d="M0 0 C0.99 0 1.98 0 3 0 C1.41980408 5.2063297 -0.77884995 9.98373311 -3.125 14.875 C-3.49753906 15.65875 -3.87007813 16.4425 -4.25390625 17.25 C-5.16618997 19.16813499 -6.08266984 21.08427329 -7 23 C-7.66 23 -8.32 23 -9 23 C-9 23.99 -9 24.98 -9 26 C4.86 26 18.72 26 33 26 C33 26.33 33 26.66 33 27 C18.81 27 4.62 27 -10 27 C-10 25.02 -10 23.04 -10 21 C-9.34 21 -8.68 21 -8 21 C-8 19.68 -8 18.36 -8 17 C-7.34 17 -6.68 17 -6 17 C-6 15.68 -6 14.36 -6 13 C-5 12 -4 11 -3 10 C-2.27802838 7.39388923 -2.27802838 7.39388923 -2 5 C-1.34 5 -0.68 5 0 5 C0 3.35 0 1.7 0 0 Z " fill="#DD444B" transform="translate(95,390)"/>
<path d="M0 0 C1.98 0 3.96 0 6 0 C6.66 2.97 7.32 5.94 8 9 C8.66 9 9.32 9 10 9 C10.33 11.97 10.66 14.94 11 18 C11.66 18 12.32 18 13 18 C13.33 20.97 13.66 23.94 14 27 C10.43919012 22.47209688 7.96506672 17.4679281 5.3125 12.375 C4.80138672 11.40820312 4.29027344 10.44140625 3.76367188 9.4453125 C3.28091797 8.52234375 2.79816406 7.599375 2.30078125 6.6484375 C1.85903564 5.80458496 1.41729004 4.96073242 0.9621582 4.09130859 C0 2 0 2 0 0 Z " fill="#EF6F75" transform="translate(350,313)"/>
<path d="M0 0 C2.33276367 0.22485352 2.33276367 0.22485352 5 1 C6.4855957 2.91772461 6.4855957 2.91772461 7.67578125 5.40234375 C8.32836914 6.73749023 8.32836914 6.73749023 8.99414062 8.09960938 C9.42919922 9.03611328 9.86425781 9.97261719 10.3125 10.9375 C10.76689453 11.87013672 11.22128906 12.80277344 11.68945312 13.76367188 C15 20.64861372 15 20.64861372 15 23 C13.68 23.33 12.36 23.66 11 24 C11 22.02 11 20.04 11 18 C10.34 18 9.68 18 9 18 C8.67 15.69 8.34 13.38 8 11 C5.36 11.66 2.72 12.32 0 13 C0 11.68 0 10.36 0 9 C0.99 8.67 1.98 8.34 3 8 C3.66 8.33 4.32 8.66 5 9 C4.22520264 6.00847418 4.22520264 6.00847418 3 3 C2.01 2.67 1.02 2.34 0 2 C0 1.34 0 0.68 0 0 Z " fill="#EB3842" transform="translate(362,259)"/>
<path d="M0 0 C0.66 0.99 1.32 1.98 2 3 C1.1015625 6.13671875 1.1015625 6.13671875 -0.375 9.6875 C-1.09816406 11.45673828 -1.09816406 11.45673828 -1.8359375 13.26171875 C-2.22007812 14.16535156 -2.60421875 15.06898438 -3 16 C-3.99 16 -4.98 16 -6 16 C-6.1546875 17.6396875 -6.1546875 17.6396875 -6.3125 19.3125 C-7.03860876 23.20708332 -7.25366109 23.55880986 -10 26 C-11.43389283 28.28494433 -12.70415805 30.63173713 -14 33 C-14.33 32.34 -14.66 31.68 -15 31 C-14.16723633 28.78857422 -14.16723633 28.78857422 -12.83203125 26.0546875 C-12.35056641 25.05953125 -11.86910156 24.064375 -11.37304688 23.0390625 C-10.85806641 21.99492187 -10.34308594 20.95078125 -9.8125 19.875 C-9.31685547 18.8540625 -8.82121094 17.833125 -8.31054688 16.78125 C-5.57960457 11.1678468 -2.80239022 5.57802731 0 0 Z " fill="#F0878C" transform="translate(166,165)"/>
<path d="M0 0 C1.38671875 2.21484375 1.38671875 2.21484375 2.6875 4.9375 C3.12449219 5.83339844 3.56148437 6.72929687 4.01171875 7.65234375 C5 10 5 10 5 12 C4.01 12 3.02 12 2 12 C2 11.01 2 10.02 2 9 C1.34 9 0.68 9 0 9 C-0.33 8.34 -0.66 7.68 -1 7 C-1.99 7 -2.98 7 -4 7 C-4 6.34 -4 5.68 -4 5 C-5.32 5 -6.64 5 -8 5 C-8 5.66 -8 6.32 -8 7 C-8.66 7 -9.32 7 -10 7 C-10 7.66 -10 8.32 -10 9 C-10.66 9 -11.32 9 -12 9 C-11.38204889 5.9789057 -10.8418778 3.70294723 -8.4140625 1.67578125 C-3.62006208 -1.20668736 -3.62006208 -1.20668736 0 0 Z " fill="#ED5E64" transform="translate(247,17)"/>
<path d="M0 0 C2.14915785 3.22373677 2.38286803 4.26703674 2 8 C1.34 8.66 0.68 9.32 0 10 C-0.99 10 -1.98 10 -3 10 C-2.01 10.33 -1.02 10.66 0 11 C-0.3492558 14.14330223 -0.83925733 15.79491452 -2.8125 18.3125 C-5 20 -5 20 -9 20 C-7.55676531 15.26210835 -5.62773267 11.01141849 -3.375 6.625 C-2.88773438 5.66400391 -2.88773438 5.66400391 -2.390625 4.68359375 C-1.59742593 3.12052499 -0.79922969 1.55999378 0 0 Z " fill="#F2353B" transform="translate(44,412)"/>
<path d="M0 0 C7.65377999 -0.05057791 15.30751713 -0.08568184 22.96142578 -0.10986328 C25.56691091 -0.11994064 28.17238469 -0.1336027 30.77783203 -0.15087891 C34.51597899 -0.17505102 38.25397685 -0.1864656 41.9921875 -0.1953125 C43.16304901 -0.20563507 44.33391052 -0.21595764 45.54025269 -0.22659302 C46.62122223 -0.22674408 47.70219177 -0.22689514 48.81591797 -0.22705078 C49.77078094 -0.231492 50.72564392 -0.23593323 51.70944214 -0.24050903 C54 0 54 0 56 2 C56.125 5.125 56.125 5.125 56 8 C54.49440461 6.03617993 53.10868317 4.21736634 52 2 C34.84 1.67 17.68 1.34 0 1 C0 0.67 0 0.34 0 0 Z " fill="#FAAAAC" transform="translate(289,295)"/>
<path d="M0 0 C3.56177042 4.08320078 5.89102338 8.36033488 8.25 13.1875 C8.61351562 13.91130859 8.97703125 14.63511719 9.3515625 15.38085938 C12 20.7324953 12 20.7324953 12 23 C11.01 23 10.02 23 9 23 C7.6449421 20.6770436 6.31345657 18.34641225 5 16 C4.63003906 15.35160156 4.26007813 14.70320313 3.87890625 14.03515625 C1.31555421 9.29342445 0.38421762 5.3790467 0 0 Z " fill="#EC767E" transform="translate(263,51)"/>
<path d="M0 0 C2.3125 0.5 2.3125 0.5 5 2 C6.45526382 4.54259302 7.44175241 7.12331598 8 10 C7.67 10.99 7.34 11.98 7 13 C5.35 10.03 3.7 7.06 2 4 C-0.31 8.62 -2.62 13.24 -5 18 C-5.33 18 -5.66 18 -6 18 C-6 16.02 -6 14.04 -6 12 C-5.34 12 -4.68 12 -4 12 C-4 10.35 -4 8.7 -4 7 C-3.34 7 -2.68 7 -2 7 C-2 6.01 -2 5.02 -2 4 C-1.34 4 -0.68 4 0 4 C0 2.68 0 1.36 0 0 Z " fill="#EE717B" transform="translate(241,94)"/>
<path d="M0 0 C3.18612708 3.85634799 5.37030973 8.21975152 7.6875 12.625 C8.10322266 13.40101563 8.51894531 14.17703125 8.94726562 14.9765625 C9.33978516 15.7190625 9.73230469 16.4615625 10.13671875 17.2265625 C10.49467529 17.90283691 10.85263184 18.57911133 11.22143555 19.27587891 C12 21 12 21 12 23 C10.68 22.67 9.36 22.34 8 22 C7.67 19.69 7.34 17.38 7 15 C6.34 15 5.68 15 5 15 C5 14.01 5 13.02 5 12 C4.01 11.67 3.02 11.34 2 11 C2.33 10.01 2.66 9.02 3 8 C2.01 8 1.02 8 0 8 C0 5.36 0 2.72 0 0 Z " fill="#ED7A80" transform="translate(379,286)"/>
<path d="M0 0 C0.99 0 1.98 0 3 0 C1.39323547 5.45593671 -1.05030894 10.3302147 -3.625 15.375 C-4.04523438 16.20644531 -4.46546875 17.03789062 -4.8984375 17.89453125 C-5.92866075 19.93156359 -6.96258821 21.96662189 -8 24 C-8.33 24 -8.66 24 -9 24 C-9.25 18.375 -9.25 18.375 -7 15 C-6.34 15 -5.68 15 -5 15 C-5.33 13.02 -5.66 11.04 -6 9 C-5.01 9 -4.02 9 -3 9 C-3 7.35 -3 5.7 -3 4 C-2.01 4.33 -1.02 4.66 0 5 C0 3.35 0 1.7 0 0 Z " fill="#EB6970" transform="translate(224,129)"/>
<path d="M0 0 C2.79643618 3.42455876 4.74004289 7.18129771 6.6875 11.125 C7.00783203 11.75792969 7.32816406 12.39085937 7.65820312 13.04296875 C10 17.74653518 10 17.74653518 10 20 C9.34 20 8.68 20 8 20 C8 19.34 8 18.68 8 18 C7.01 18 6.02 18 5 18 C5 16.02 5 14.04 5 12 C4.34 12 3.68 12 3 12 C3 12.99 3 13.98 3 15 C2.34 15 1.68 15 1 15 C1.020625 14.01 1.04125 13.02 1.0625 12 C1.07081428 7.93431926 0.56468467 4.02337824 0 0 Z " fill="#EC666C" transform="translate(395,317)"/>
<path d="M0 0 C2.79643618 3.42455876 4.74004289 7.18129771 6.6875 11.125 C7.00783203 11.75792969 7.32816406 12.39085937 7.65820312 13.04296875 C10 17.74653518 10 17.74653518 10 20 C9.34 20 8.68 20 8 20 C7.67 21.32 7.34 22.64 7 24 C5.39274365 20.78548731 5.94251815 17.56387464 6 14 C5.01 14 4.02 14 3 14 C2.49307308 12.4188708 1.99473557 10.83498617 1.5 9.25 C1.2215625 8.36828125 0.943125 7.4865625 0.65625 6.578125 C0 4 0 4 0 0 Z " fill="#ED6C71" transform="translate(298,119)"/>
<path d="M0 0 C0.66 0.99 1.32 1.98 2 3 C1.5390625 5.26171875 1.5390625 5.26171875 0.625 7.6875 C0.32851562 8.49574219 0.03203125 9.30398437 -0.2734375 10.13671875 C-0.51320312 10.75160156 -0.75296875 11.36648437 -1 12 C-1.66 12 -2.32 12 -3 12 C-3.33 13.65 -3.66 15.3 -4 17 C-5.32 17.33 -6.64 17.66 -8 18 C-6.65150163 13.64029169 -4.95092154 9.68658562 -2.875 5.625 C-2.33617187 4.56539062 -1.79734375 3.50578125 -1.2421875 2.4140625 C-0.83226562 1.61742188 -0.42234375 0.82078125 0 0 Z " fill="#EE7E85" transform="translate(186,124)"/>
<path d="M0 0 C0.268125 0.5775 0.53625 1.155 0.8125 1.75 C1.95053246 4.05747896 1.95053246 4.05747896 3.625 6.125 C5 8 5 8 5 10 C4.34 10 3.68 10 3 10 C3 11.98 3 13.96 3 16 C-1.10083191 10.78075939 -2.26060773 7.77580101 -2 1 C-1.34 0.67 -0.68 0.34 0 0 Z " fill="#F3313E" transform="translate(347,297)"/>
<path d="M0 0 C0.99 0.99 1.98 1.98 3 3 C1.4719611 8.09882455 -0.71036856 12.65665659 -3.125 17.375 C-3.49753906 18.11105469 -3.87007812 18.84710938 -4.25390625 19.60546875 C-5.1656122 21.40550358 -6.08229932 23.20301402 -7 25 C-7.33 25 -7.66 25 -8 25 C-8.20140476 21.37471432 -7.85776765 19.13498292 -6 16 C-5.34 16 -4.68 16 -4 16 C-4 14.02 -4 12.04 -4 10 C-3.34 10 -2.68 10 -2 10 C-2 9.34 -2 8.68 -2 8 C-1.34 8 -0.68 8 0 8 C0 5.36 0 2.72 0 0 Z " fill="#EC7376" transform="translate(203,169)"/>
<path d="M0 0 C0.33 0 0.66 0 1 0 C1 2.64 1 5.28 1 8 C0.01 8 -0.98 8 -2 8 C-2.33 10.64 -2.66 13.28 -3 16 C-3.66 16 -4.32 16 -5 16 C-5 17.32 -5 18.64 -5 20 C-6.32 20.33 -7.64 20.66 -9 21 C-7.50640515 16.15713185 -5.54966433 11.68649104 -3.375 7.125 C-2.88773438 6.09246094 -2.88773438 6.09246094 -2.390625 5.0390625 C-1.59676528 3.35794781 -0.79880442 1.67877079 0 0 Z " fill="#EF898C" transform="translate(212,70)"/>
<path d="M0 0 C3.96 0.33 7.92 0.66 12 1 C12 1.66 12 2.32 12 3 C1.44 3 -9.12 3 -20 3 C-20 2.67 -20 2.34 -20 2 C-13.4 2 -6.8 2 0 2 C0 1.34 0 0.68 0 0 Z " fill="#E7353D" transform="translate(228,290)"/>
<path d="M0 0 C2.31 0.66 4.62 1.32 7 2 C8.25348607 4.95106435 8.01044806 5.97406463 6.78515625 9.015625 C5.93244141 10.61664063 5.93244141 10.61664063 5.0625 12.25 C4.49660156 13.32765625 3.93070312 14.4053125 3.34765625 15.515625 C2.90292969 16.33546875 2.45820312 17.1553125 2 18 C1.67 18 1.34 18 1 18 C1 16.02 1 14.04 1 12 C1.66 12 2.32 12 3 12 C3 10.35 3 8.7 3 7 C3.66 7 4.32 7 5 7 C4.67 5.35 4.34 3.7 4 2 C3.01 2.33 2.02 2.66 1 3 C0.67 2.01 0.34 1.02 0 0 Z " fill="#ED7A82" transform="translate(112,341)"/>
<path d="M0 0 C2.97 0.495 2.97 0.495 6 1 C2.94216092 3.40569331 -0.22457996 5.36189615 -3.625 7.25 C-5.06746094 8.06210937 -5.06746094 8.06210937 -6.5390625 8.890625 C-7.35117187 9.25671875 -8.16328125 9.6228125 -9 10 C-11 9 -11 9 -13 6 C-10.69 6 -8.38 6 -6 6 C-6 5.34 -6 4.68 -6 4 C-4.02 3.34 -2.04 2.68 0 2 C0 1.34 0 0.68 0 0 Z " fill="#EE7177" transform="translate(431,443)"/>
<path d="M0 0 C0.99 0 1.98 0 3 0 C1.41980408 5.2063297 -0.77884995 9.98373311 -3.125 14.875 C-3.49753906 15.65875 -3.87007813 16.4425 -4.25390625 17.25 C-5.16618997 19.16813499 -6.08266984 21.08427329 -7 23 C-7.33 23 -7.66 23 -8 23 C-8 21.02 -8 19.04 -8 17 C-7.34 17 -6.68 17 -6 17 C-6 15.68 -6 14.36 -6 13 C-5 12 -4 11 -3 10 C-2.27802838 7.39388923 -2.27802838 7.39388923 -2 5 C-1.34 5 -0.68 5 0 5 C0 3.35 0 1.7 0 0 Z " fill="#F29A9E" transform="translate(95,390)"/>
<path d="M0 0 C2.64 0 5.28 0 8 0 C4.66248862 2.66343273 1.11898148 4.70475504 -2.625 6.75 C-3.77226562 7.38421875 -4.91953125 8.0184375 -6.1015625 8.671875 C-7.05804688 9.11015625 -8.01453125 9.5484375 -9 10 C-9.66 9.67 -10.32 9.34 -11 9 C-7.82635843 5.55433201 -5.38999156 3.58527473 -1 2 C-0.67 1.34 -0.34 0.68 0 0 Z " fill="#ED8C8F" transform="translate(315,179)"/>
<path d="M0 0 C1 3 1 3 0.37915039 4.80932617 C0.03875732 5.46392822 -0.30163574 6.11853027 -0.65234375 6.79296875 C-1.01650391 7.50517578 -1.38066406 8.21738281 -1.75585938 8.95117188 C-2.14580078 9.68916016 -2.53574219 10.42714844 -2.9375 11.1875 C-3.51661133 12.31188477 -3.51661133 12.31188477 -4.10742188 13.45898438 C-5.06271757 15.31060689 -6.03021577 17.15592452 -7 19 C-7.33 19 -7.66 19 -8 19 C-7.505 14.545 -7.505 14.545 -7 10 C-6.34 10 -5.68 10 -5 10 C-5 9.01 -5 8.02 -5 7 C-4.34 7 -3.68 7 -3 7 C-3.33 5.02 -3.66 3.04 -4 1 C-2.68 1.33 -1.36 1.66 0 2 C0 1.34 0 0.68 0 0 Z " fill="#EF8B8E" transform="translate(214,153)"/>
<path d="M0 0 C2.40569331 3.05783908 4.36189615 6.22457996 6.25 9.625 C6.79140625 10.58664062 7.3328125 11.54828125 7.890625 12.5390625 C8.25671875 13.35117187 8.6228125 14.16328125 9 15 C8.67 15.66 8.34 16.32 8 17 C7.01 16.67 6.02 16.34 5 16 C5 14.68 5 13.36 5 12 C4.01 11.67 3.02 11.34 2 11 C0.60955102 7.12137916 0 4.13537997 0 0 Z " fill="#ED7F84" transform="translate(434,394)"/>
<path d="M0 0 C0.33 0 0.66 0 1 0 C0.67 3.96 0.34 7.92 0 12 C-1.32 12 -2.64 12 -4 12 C-4 13.32 -4 14.64 -4 16 C-4.99 16.33 -5.98 16.66 -7 17 C-5.1668733 11.00067626 -2.92678249 5.55079437 0 0 Z " fill="#EF7E85" transform="translate(76,346)"/>
<path d="M0 0 C0.66 0 1.32 0 2 0 C0.00386732 6.7186905 -2.7291421 12.80734808 -6 19 C-6.33 19 -6.66 19 -7 19 C-7 17.02 -7 15.04 -7 13 C-6.34 13 -5.68 13 -5 13 C-5.020625 12.21625 -5.04125 11.4325 -5.0625 10.625 C-5 8 -5 8 -4 6 C-3.34 6 -2.68 6 -2 6 C-2 5.01 -2 4.02 -2 3 C-1.34 3 -0.68 3 0 3 C0 2.01 0 1.02 0 0 Z " fill="#EE8084" transform="translate(174,233)"/>
<path d="M0 0 C1.98 0 3.96 0 6 0 C7.28571429 7.42857143 7.28571429 7.42857143 6 11 C3.02753198 8.45217026 1.58464712 5.54659117 0 2 C0 1.34 0 0.68 0 0 Z " fill="#EE6268" transform="translate(350,313)"/>
<path d="M0 0 C0.33 0 0.66 0 1 0 C1 1.98 1 3.96 1 6 C0.34 6 -0.32 6 -1 6 C-1 8.31 -1 10.62 -1 13 C-1.66 13 -2.32 13 -3 13 C-3 14.32 -3 15.64 -3 17 C-4.32 17 -5.64 17 -7 17 C-5.24009216 11.08030998 -2.60305395 5.58365008 0 0 Z " fill="#EE7178" transform="translate(234,26)"/>
<path d="M0 0 C2.29648357 2.89585905 4.04347557 5.8172031 5.6875 9.125 C6.12449219 9.99382812 6.56148438 10.86265625 7.01171875 11.7578125 C8 14 8 14 8 16 C6.68 16.33 5.36 16.66 4 17 C4 15.02 4 13.04 4 11 C3.34 11 2.68 11 2 11 C0.80712589 7.12315913 0 4.08378077 0 0 Z " fill="#ED7878" transform="translate(369,266)"/>
<path d="M0 0 C0.84062397 3.09773244 1.08935201 5.78332751 1 9 C-0.98 9.99 -0.98 9.99 -3 11 C-3 12.32 -3 13.64 -3 15 C-4.98 15.99 -4.98 15.99 -7 17 C-5.1668733 11.00067626 -2.92678249 5.55079437 0 0 Z " fill="#F0868B" transform="translate(196,103)"/>
<path d="M0 0 C0.33 0.99 0.66 1.98 1 3 C1.66 3 2.32 3 3 3 C4.125 8.75 4.125 8.75 3 11 C2.9603287 12.66619446 2.95615553 14.33391013 3 16 C0.18568957 12.81498739 -0.4576654 10.5232426 -0.75 6.3125 C-0.82734375 5.33925781 -0.9046875 4.36601563 -0.984375 3.36328125 C-0.98953125 2.58339844 -0.9946875 1.80351563 -1 1 C-0.67 0.67 -0.34 0.34 0 0 Z " fill="#F0484C" transform="translate(249,97)"/>
<path d="M0 0 C0.99 0.33 1.98 0.66 3 1 C3 2.32 3 3.64 3 5 C3.66 5 4.32 5 5 5 C5 5.99 5 6.98 5 8 C5.66 8 6.32 8 7 8 C9.09350689 11.4019487 9.17942163 14.05272412 9 18 C6.44624385 14.82505993 4.62552847 11.51896339 2.8125 7.875 C2.28269531 6.82054687 1.75289063 5.76609375 1.20703125 4.6796875 C0 2 0 2 0 0 Z " fill="#E67979" transform="translate(364,340)"/>
<path d="M0 0 C0.66 0.33 1.32 0.66 2 1 C2.40729228 3.32156597 2.74438677 5.6568787 3 8 C3.66 8 4.32 8 5 8 C5 9.32 5 10.64 5 12 C5.99 12.33 6.98 12.66 8 13 C8 14.98 8 16.96 8 19 C5.46884809 15.83606011 3.59098899 12.54351484 1.75 8.9375 C1.20859375 7.89464844 0.6671875 6.85179688 0.109375 5.77734375 C-1 3 -1 3 0 0 Z " fill="#ED868C" transform="translate(253,112)"/>
<path d="M0 0 C1.37734745 3.82596514 0.7995385 7.07499282 0 11 C-0.66 11.66 -1.32 12.32 -2 13 C-3.32 13 -4.64 13 -6 13 C-4.58707905 8.1725201 -2.57025846 4.2837641 0 0 Z " fill="#F18187" transform="translate(219,57)"/>
<path d="M0 0 C1.22419163 3.93795909 0.48320272 6.16112237 -1 10 C-1.66 10 -2.32 10 -3 10 C-3.99 12.97 -4.98 15.94 -6 19 C-6.66 19 -7.32 19 -8 19 C-6.00386732 12.2813095 -3.2708579 6.19265192 0 0 Z " fill="#F2969A" transform="translate(177,142)"/>
<path d="M0 0 C1.25127906 3.54667178 0.72285053 5.72253438 -0.4375 9.25 C-0.72496094 10.14203125 -1.01242188 11.0340625 -1.30859375 11.953125 C-1.53675781 12.62859375 -1.76492187 13.3040625 -2 14 C-2.99 14 -3.98 14 -5 14 C-5 14.66 -5 15.32 -5 16 C-5.66 16 -6.32 16 -7 16 C-5.35433477 10.31497465 -2.70967216 5.23318364 0 0 Z " fill="#F08B92" transform="translate(60,379)"/>
<path d="M0 0 C5.88157895 4.31315789 5.88157895 4.31315789 6.625 8.625 C6.74875 9.73875 6.8725 10.8525 7 12 C7.99 12.33 8.98 12.66 10 13 C9.34 14.32 8.68 15.64 8 17 C6.66161267 14.54429825 5.32913768 12.08570084 4 9.625 C3.6184375 8.92632812 3.236875 8.22765625 2.84375 7.5078125 C0 2.2265625 0 2.2265625 0 0 Z " fill="#EF8188" transform="translate(382,376)"/>
<path d="M0 0 C2.96659857 3.55991828 5.381348 7.65222543 7 12 C6.67 12.66 6.34 13.32 6 14 C5.34 14 4.68 14 4 14 C4 12.68 4 11.36 4 10 C3.34 10 2.68 10 2 10 C1.67 10.66 1.34 11.32 1 12 C0.22596442 7.93631321 -0.0984702 4.13574827 0 0 Z " fill="#F07079" transform="translate(256,37)"/>
<path d="M0 0 C1.05305136 2.92514265 0.92918653 4.4036368 0.375 7.5625 C-0.38700144 10.9368793 -0.38700144 10.9368793 1.4375 12.9375 C1.953125 13.288125 2.46875 13.63875 3 14 C2.01 14.495 2.01 14.495 1 15 C-1.03144641 14.06553465 -3.03533587 13.06775224 -5 12 C-3.41037341 7.96479403 -1.71767682 3.98188718 0 0 Z " fill="#EE9299" transform="translate(34,432)"/>
<path d="M0 0 C2.14915785 3.22373677 2.38286803 4.26703674 2 8 C1.34 8.66 0.68 9.32 0 10 C-0.99 10 -1.98 10 -3 10 C-3 10.66 -3 11.32 -3 12 C-3.66 12 -4.32 12 -5 12 C-3.68938409 7.76570244 -2.05643741 3.92592596 0 0 Z " fill="#F18388" transform="translate(44,412)"/>
<path d="M0 0 C5.68502535 1.64566523 10.76681636 4.29032784 16 7 C16 7.33 16 7.66 16 8 C14.35 8 12.7 8 11 8 C11 7.34 11 6.68 11 6 C9.68 6 8.36 6 7 6 C7 5.34 7 4.68 7 4 C4.69 4 2.38 4 0 4 C-0.33 3.01 -0.66 2.02 -1 1 C-0.67 0.67 -0.34 0.34 0 0 Z " fill="#EC7579" transform="translate(96,333)"/>
<path d="M0 0 C4.21912747 0.4794463 6.79663178 1.16625119 10 4 C6.52674819 5.1577506 3.63932552 5.06866652 0 5 C0 3.35 0 1.7 0 0 Z " fill="#EE5A61" transform="translate(86,329)"/>
<path d="M0 0 C1.9375 0.375 1.9375 0.375 4 1 C4.33 1.66 4.66 2.32 5 3 C5.66 3 6.32 3 7 3 C6.67 4.98 6.34 6.96 6 9 C6.66 9.33 7.32 9.66 8 10 C7.01 11.485 7.01 11.485 6 13 C4.99491199 11.21118264 3.99607264 9.41885304 3 7.625 C2.1646875 6.12839844 2.1646875 6.12839844 1.3125 4.6015625 C0 2 0 2 0 0 Z " fill="#ED6C71" transform="translate(269,147)"/>
<path d="M0 0 C0.33 0.66 0.66 1.32 1 2 C-0.07408957 4.60474038 -1.20045633 7.09966038 -2.4375 9.625 C-2.77587891 10.33140625 -3.11425781 11.0378125 -3.46289062 11.765625 C-4.30154879 13.51381384 -5.14987847 15.25735686 -6 17 C-6.33 17 -6.66 17 -7 17 C-7 15.02 -7 13.04 -7 11 C-6.34 11 -5.68 11 -5 11 C-5 9.68 -5 8.36 -5 7 C-4.34 6.67 -3.68 6.34 -3 6 C-2.835 5.175 -2.67 4.35 -2.5 3.5 C-2.335 2.675 -2.17 1.85 -2 1 C-1.34 0.67 -0.68 0.34 0 0 Z " fill="#EF9397" transform="translate(234,112)"/>
<path d="M0 0 C3 1 3 1 4.38671875 3.21484375 C4.81597656 4.11332031 5.24523437 5.01179688 5.6875 5.9375 C6.12449219 6.83339844 6.56148437 7.72929687 7.01171875 8.65234375 C8 11 8 11 8 13 C7.01 13 6.02 13 5 13 C5 12.01 5 11.02 5 10 C4.34 10 3.68 10 3 10 C2.01 6.7 1.02 3.4 0 0 Z " fill="#EF8489" transform="translate(244,16)"/>
<path d="M0 0 C0.33 0 0.66 0 1 0 C1 2.64 1 5.28 1 8 C0.34 8 -0.32 8 -1 8 C-1 9.32 -1 10.64 -1 12 C-2.32 12 -3.64 12 -5 12 C-3.68938409 7.76570244 -2.05643741 3.92592596 0 0 Z " fill="#EC757E" transform="translate(146,206)"/>
<path d="M0 0 C0.33 0 0.66 0 1 0 C1 2.64 1 5.28 1 8 C0.34 8 -0.32 8 -1 8 C-1 9.32 -1 10.64 -1 12 C-2.32 12 -3.64 12 -5 12 C-3.68938409 7.76570244 -2.05643741 3.92592596 0 0 Z " fill="#EE797C" transform="translate(202,91)"/>
<path d="M0 0 C0.33 0.66 0.66 1.32 1 2 C-0.21484375 4.8203125 -0.21484375 4.8203125 -1.9375 8.125 C-2.50339844 9.22070312 -3.06929688 10.31640625 -3.65234375 11.4453125 C-4.09707031 12.28835938 -4.54179688 13.13140625 -5 14 C-5.33 14 -5.66 14 -6 14 C-6 11.69 -6 9.38 -6 7 C-5.34 7 -4.68 7 -4 7 C-3.896875 6.21625 -3.79375 5.4325 -3.6875 4.625 C-3 2 -3 2 0 0 Z " fill="#EF8C91" transform="translate(112,360)"/>
<path d="M0 0 C1.06834141 3.58604109 0.74634541 4.71276159 -1 8 C-1 9.32 -1 10.64 -1 12 C-0.34 12.33 0.32 12.66 1 13 C1 13.66 1 14.32 1 15 C-0.98 14.34 -2.96 13.68 -5 13 C-4.32116957 9.88452559 -3.25893098 7.14862279 -1.9375 4.25 C-1.57527344 3.45078125 -1.21304688 2.6515625 -0.83984375 1.828125 C-0.56269531 1.22484375 -0.28554687 0.6215625 0 0 Z " fill="#F1A7AB" transform="translate(116,267)"/>
<path d="M0 0 C0.33 0 0.66 0 1 0 C1.30769231 8 1.30769231 8 -1 11 C-3.125 11.75 -3.125 11.75 -5 12 C-3.68938409 7.76570244 -2.05643741 3.92592596 0 0 Z " fill="#EF8087" transform="translate(140,218)"/>
<path d="M0 0 C6 8 6 8 6 12 C4.35 11.67 2.7 11.34 1 11 C0.67 7.37 0.34 3.74 0 0 Z " fill="#F0878F" transform="translate(443,411)"/>
<path d="M0 0 C2.74792483 3.40219265 6 7.48464588 6 12 C3 12 3 12 1.32421875 10.79296875 C-0.38179304 8.48305898 -0.31091704 7.15109181 -0.1875 4.3125 C-0.16042969 3.50425781 -0.13335937 2.69601562 -0.10546875 1.86328125 C-0.07066406 1.24839844 -0.03585937 0.63351562 0 0 Z " fill="#F08284" transform="translate(417,360)"/>
<path d="M0 0 C1.65 0 3.3 0 5 0 C6.231394 3.69418201 5.64432764 6.2056261 5 10 C2.35534962 6.8745041 1.15585285 3.91211733 0 0 Z " fill="#F0777C" transform="translate(264,137)"/>
<path d="M0 0 C6 8 6 8 6 12 C4.35 11.67 2.7 11.34 1 11 C0.67 7.37 0.34 3.74 0 0 Z " fill="#F07E85" transform="translate(275,74)"/>
<path d="M0 0 C0.66 0.66 1.32 1.32 2 2 C1.625 4.625 1.625 4.625 1 7 C0.01 7.33 -0.98 7.66 -2 8 C-2.73323796 10.01508358 -2.73323796 10.01508358 -3 12 C-3.66 12 -4.32 12 -5 12 C-3.68938409 7.76570244 -2.05643741 3.92592596 0 0 Z " fill="#EE7982" transform="translate(66,367)"/>
<path d="M0 0 C2.50298434 2.93828597 3.46930939 5.17902761 4 9 C2.03533587 10.06775224 0.03144641 11.06553465 -2 12 C-2.66 11.67 -3.32 11.34 -4 11 C-3.67 10.34 -3.34 9.68 -3 9 C-1.68 9 -0.36 9 1 9 C0.67 6.03 0.34 3.06 0 0 Z " fill="#EF9199" transform="translate(451,427)"/>
<path d="M0 0 C2.74792483 3.40219265 6 7.48464588 6 12 C4.68 11.67 3.36 11.34 2 11 C0.80712589 7.12315913 0 4.08378077 0 0 Z " fill="#EF7F87" transform="translate(423,372)"/>
<path d="M0 0 C2.74792483 3.40219265 6 7.48464588 6 12 C4.68 12 3.36 12 2 12 C0.86235649 7.73383684 0 4.43513689 0 0 Z " fill="#EF8B8F" transform="translate(298,119)"/>
<path d="M0 0 C6 8 6 8 6 12 C5.34 12 4.68 12 4 12 C4 11.34 4 10.68 4 10 C3.01 10 2.02 10 1 10 C0.67 6.7 0.34 3.4 0 0 Z " fill="#F07D83" transform="translate(399,325)"/>
<path d="M0 0 C0.99352844 3.09097736 0.96367132 4.91625179 0 8 C-0.185625 8.7425 -0.37125 9.485 -0.5625 10.25 C-0.706875 10.8275 -0.85125 11.405 -1 12 C-2.32 12.33 -3.64 12.66 -5 13 C-3.58192622 8.52761347 -1.88695626 4.28853694 0 0 Z " fill="#F08287" transform="translate(134,230)"/>
<path d="M0 0 C0.99 0 1.98 0 3 0 C1.68938409 4.23429756 0.05643741 8.07407404 -2 12 C-2.33 12 -2.66 12 -3 12 C-3 9.36 -3 6.72 -3 4 C-2.01 4.33 -1.02 4.66 0 5 C0 3.35 0 1.7 0 0 Z " fill="#EF8084" transform="translate(224,129)"/>
<path d="M0 0 C0.66 0.99 1.32 1.98 2 3 C1.5390625 5.26171875 1.5390625 5.26171875 0.625 7.6875 C0.18027344 8.89986328 0.18027344 8.89986328 -0.2734375 10.13671875 C-0.51320312 10.75160156 -0.75296875 11.36648437 -1 12 C-1.66 12 -2.32 12 -3 12 C-2.69106068 10.3743193 -2.3777305 8.74947252 -2.0625 7.125 C-1.88847656 6.22007812 -1.71445313 5.31515625 -1.53515625 4.3828125 C-1 2 -1 2 0 0 Z " fill="#EB5A62" transform="translate(186,124)"/>
<path d="M0 0 C0.66 0 1.32 0 2 0 C2.33 1.98 2.66 3.96 3 6 C1.35 7.32 -0.3 8.64 -2 10 C-2.17942163 6.05272412 -2.09350689 3.4019487 0 0 Z " fill="#EC6470" transform="translate(79,340)"/>
<path d="M0 0 C0.33 0 0.66 0 1 0 C1 2.97 1 5.94 1 9 C-0.65 9.33 -2.3 9.66 -4 10 C-2.8905928 6.51329166 -1.73662334 3.22515763 0 0 Z " fill="#F17C87" transform="translate(121,257)"/>
<path d="M0 0 C0.99 0.33 1.98 0.66 3 1 C2.01 2.485 2.01 2.485 1 4 C1.30840599 6.15274948 1.30840599 6.15274948 2 8 C0.68 7.67 -0.64 7.34 -2 7 C-2 6.01 -2 5.02 -2 4 C-2.66 3.67 -3.32 3.34 -4 3 C-2.1875 1.4375 -2.1875 1.4375 0 0 Z " fill="#ED5A5F" transform="translate(119,276)"/>
<path d="M0 0 C0.99 0.33 1.98 0.66 3 1 C1.84414715 4.91211733 0.64465038 7.8745041 -2 11 C-2.28571429 3.57142857 -2.28571429 3.57142857 0 0 Z " fill="#EE7981" transform="translate(103,373)"/>
<path d="M0 0 C3.09592835 3.5087188 4.74194623 6.49197399 6 11 C5.34 11 4.68 11 4 11 C1.18236593 8.18236593 0.05391197 6.71433365 -0.25 2.6875 C-0.1675 1.800625 -0.085 0.91375 0 0 Z " fill="#EF8A92" transform="translate(411,349)"/>
<path d="M0 0 C0.103125 0.639375 0.20625 1.27875 0.3125 1.9375 C0.539375 2.618125 0.76625 3.29875 1 4 C1.99 4.33 2.98 4.66 4 5 C4 7.31 4 9.62 4 12 C1.35858749 8.87833067 0.03218742 5.95671845 -1 2 C-0.67 1.34 -0.34 0.68 0 0 Z " fill="#F2777E" transform="translate(346,301)"/>
<path d="M0 0 C0.99 0.99 1.98 1.98 3 3 C1.84414715 6.91211733 0.64465038 9.8745041 -2 13 C-2 11.35 -2 9.7 -2 8 C-1.34 8 -0.68 8 0 8 C0 5.36 0 2.72 0 0 Z " fill="#EF787F" transform="translate(203,169)"/>
<path d="M0 0 C0.33 0 0.66 0 1 0 C1.25 6.625 1.25 6.625 -1 10 C-1.99 10 -2.98 10 -4 10 C-2.8905928 6.51329166 -1.73662334 3.22515763 0 0 Z " fill="#ED787D" transform="translate(226,43)"/>
<path d="M0 0 C1.98 0.99 1.98 0.99 4 2 C4 3.65 4 5.3 4 7 C4.66 7 5.32 7 6 7 C6 8.65 6 10.3 6 12 C3.25207517 8.59780735 0 4.51535412 0 0 Z " fill="#EE7D84" transform="translate(391,393)"/>
<path d="M0 0 C2.64465038 3.1254959 3.84414715 6.08788267 5 10 C4.34 10.66 3.68 11.32 3 12 C2.34 10.68 1.68 9.36 1 8 C0.67 8 0.34 8 0 8 C0 5.36 0 2.72 0 0 Z " fill="#EF7881" transform="translate(429,384)"/>
<path d="M0 0 C2.92509086 3.90012114 3.47535095 5.38308839 4 10 C2.68 10.33 1.36 10.66 0 11 C0 7.37 0 3.74 0 0 Z " fill="#F19DA0" transform="translate(323,168)"/>
<path d="M0 0 C2.15377564 2.62198774 3.40072174 4.64404172 4 8 C3.01 8 2.02 8 1 8 C1 7.34 1 6.68 1 6 C0.34 6 -0.32 6 -1 6 C-1.042721 4.33388095 -1.04063832 2.66617115 -1 1 C-0.67 0.67 -0.34 0.34 0 0 Z " fill="#ED6F76" transform="translate(310,143)"/>
<path d="M0 0 C0.66 0 1.32 0 2 0 C5 5.75 5 5.75 5 8 C3.68 7.67 2.36 7.34 1 7 C0.67 4.69 0.34 2.38 0 0 Z " fill="#EF8587" transform="translate(386,301)"/>
<path d="M0 0 C0.99 0.33 1.98 0.66 3 1 C1.75539217 1.67667998 0.50403104 2.34094719 -0.75 3 C-1.44609375 3.37125 -2.1421875 3.7425 -2.859375 4.125 C-5 5 -5 5 -9 5 C-9.33 3.68 -9.66 2.36 -10 1 C-9.0925 1.20625 -8.185 1.4125 -7.25 1.625 C-3.76861938 2.02669776 -2.9317167 1.61749887 0 0 Z " fill="#F3B1B6" transform="translate(301,189)"/>
<path d="M0 0 C7.75 0.875 7.75 0.875 10 2 C10 2.99 10 3.98 10 5 C6.08788267 3.84414715 3.1254959 2.64465038 0 0 Z " fill="#EE8288" transform="translate(37,447)"/>
<path d="M0 0 C2.97 0.495 2.97 0.495 6 1 C3.14693203 3.32472205 0.45925163 4.7508258 -3 6 C-2.67 4.68 -2.34 3.36 -2 2 C-1.34 2 -0.68 2 0 2 C0 1.34 0 0.68 0 0 Z " fill="#EA6970" transform="translate(431,443)"/>
<path d="M0 0 C0.99 0.495 0.99 0.495 2 1 C2.4140625 3.06640625 2.4140625 3.06640625 2.625 5.5625 C2.69976562 6.38878906 2.77453125 7.21507812 2.8515625 8.06640625 C2.92503906 9.02353516 2.92503906 9.02353516 3 10 C2.01 10.33 1.02 10.66 0 11 C0 7.37 0 3.74 0 0 Z " fill="#F13744" transform="translate(441,410)"/>
<path d="M0 0 C-7.42857143 4.42857143 -7.42857143 4.42857143 -11 5 C-10 2 -10 2 -6.625 0.25 C-3 -1 -3 -1 0 0 Z " fill="#E2434E" transform="translate(308,186)"/>
<path d="M0 0 C0.66 0 1.32 0 2 0 C1.56179109 4.55737263 1.14958831 7.57653445 -2 11 C-2 9.02 -2 7.04 -2 5 C-1.34 5 -0.68 5 0 5 C0 3.35 0 1.7 0 0 Z " fill="#EA6C73" transform="translate(237,101)"/>
<path d="M0 0 C0.99 0.33 1.98 0.66 3 1 C1.7508258 4.45925163 0.32472205 7.14693203 -2 10 C-2 8.02 -2 6.04 -2 4 C-1.34 4 -0.68 4 0 4 C0 2.68 0 1.36 0 0 Z " fill="#F37A7E" transform="translate(241,94)"/>
<path d="M0 0 C3.09592835 3.5087188 4.74194623 6.49197399 6 11 C3.5625 10 3.5625 10 1 8 C0.23618519 5.27285838 0.14057352 2.85832822 0 0 Z " fill="#F19193" transform="translate(263,51)"/>
<path d="M0 0 C0.33 0 0.66 0 1 0 C1.33 2.64 1.66 5.28 2 8 C0.35 8 -1.3 8 -3 8 C-1.125 2.25 -1.125 2.25 0 0 Z " fill="#F08285" transform="translate(38,424)"/>
<path d="M0 0 C3.3 0 6.6 0 10 0 C10.33 0.66 10.66 1.32 11 2 C10.34 2 9.68 2 9 2 C9 2.66 9 3.32 9 4 C6.03 3.01 3.06 2.02 0 1 C0 0.67 0 0.34 0 0 Z " fill="#F07377" transform="translate(121,284)"/>
<path d="M0 0 C2.475 0.495 2.475 0.495 5 1 C5.66 2.98 6.32 4.96 7 7 C5.68 6.34 4.36 5.68 3 5 C3 4.34 3 3.68 3 3 C2.01 2.67 1.02 2.34 0 2 C0 1.34 0 0.68 0 0 Z " fill="#EF9395" transform="translate(362,259)"/>
<path d="M0 0 C2.15377564 2.62198774 3.40072174 4.64404172 4 8 C2.35 7.67 0.7 7.34 -1 7 C-0.67 4.69 -0.34 2.38 0 0 Z " fill="#ED7379" transform="translate(285,94)"/>
<path d="M0 0 C0.33 0 0.66 0 1 0 C1.33 2.31 1.66 4.62 2 7 C0.35 7.33 -1.3 7.66 -3 8 C-1.125 2.25 -1.125 2.25 0 0 Z " fill="#F07175" transform="translate(150,198)"/>
<path d="M0 0 C0.66 0.99 1.32 1.98 2 3 C0.625 6.6875 0.625 6.6875 -1 10 C-1.33 10 -1.66 10 -2 10 C-2.17942163 6.05272412 -2.09350689 3.4019487 0 0 Z " fill="#ED686F" transform="translate(166,165)"/>
<path d="M0 0 C0.33 0.99 0.66 1.98 1 3 C0.34 3 -0.32 3 -1 3 C-1 4.32 -1 5.64 -1 7 C-2.32 7.33 -3.64 7.66 -5 8 C-4.34 6.02 -3.68 4.04 -3 2 C-2.01 2 -1.02 2 0 2 C0 1.34 0 0.68 0 0 Z " fill="#ED686D" transform="translate(208,83)"/>
<path d="M0 0 C0.99 0.33 1.98 0.66 3 1 C3 2.32 3 3.64 3 5 C3.66 5 4.32 5 5 5 C5 6.65 5 8.3 5 10 C2.35534962 6.8745041 1.15585285 3.91211733 0 0 Z " fill="#EC8087" transform="translate(364,340)"/>
<path d="M0 0 C2.64 0 5.28 0 8 0 C5.37801226 2.15377564 3.35595828 3.40072174 0 4 C0 2.68 0 1.36 0 0 Z " fill="#F07679" transform="translate(315,179)"/>
<path d="M0 0 C1.37432457 3.81756824 0.67975039 7.07255329 0 11 C-0.66 11 -1.32 11 -2 11 C-2.25 3.375 -2.25 3.375 0 0 Z " fill="#ED6C6F" transform="translate(219,57)"/>
<path d="M0 0 C0.99 0 1.98 0 3 0 C1.125 5.75 1.125 5.75 0 8 C-0.66 8 -1.32 8 -2 8 C-2 7.01 -2 6.02 -2 5 C-1.34 5 -0.68 5 0 5 C0 3.35 0 1.7 0 0 Z " fill="#EA767D" transform="translate(95,390)"/>
<path d="M0 0 C0.99 0 1.98 0 3 0 C4.35439668 2.70879335 4.06501451 5.00933268 4 8 C1.84622436 5.37801226 0.59927826 3.35595828 0 0 Z " fill="#ED8A90" transform="translate(378,368)"/>
<path d="M0 0 C0.82638376 2.89234315 1 4.88742431 1 8 C0.01 8 -0.98 8 -2 8 C-1.125 2.25 -1.125 2.25 0 0 Z " fill="#EE3342" transform="translate(116,271)"/>
<path d="M0 0 C0.99 0.33 1.98 0.66 3 1 C1.25 6.75 1.25 6.75 -1 9 C-1.07427838 5.65747276 -1.06546953 3.1964086 0 0 Z " fill="#EF757D" transform="translate(177,224)"/>
<path d="M0 0 C0.66 0.33 1.32 0.66 2 1 C2.59355614 3.64860427 2.74209269 6.29197322 3 9 C0.86928411 6.40608501 -0.53582673 4.36525621 -1 1 C-0.67 0.67 -0.34 0.34 0 0 Z " fill="#EE7A82" transform="translate(253,112)"/>
<path d="M0 0 C2.15377564 2.62198774 3.40072174 4.64404172 4 8 C3.01 8 2.02 8 1 8 C-0.35439668 5.29120665 -0.06501451 2.99066732 0 0 Z " fill="#ED868B" transform="translate(252,29)"/>
<path d="M0 0 C0.99 0.66 1.98 1.32 3 2 C2.34 2.66 1.68 3.32 1 4 C0.01 4 -0.98 4 -2 4 C-2 4.66 -2 5.32 -2 6 C-2.66 6 -3.32 6 -4 6 C-3.67 4.68 -3.34 3.36 -3 2 C-2.01 2 -1.02 2 0 2 C0 1.34 0 0.68 0 0 Z " fill="#EF6269" transform="translate(43,418)"/>
<path d="M0 0 C0.66 0 1.32 0 2 0 C1.01 2.97 0.02 5.94 -1 9 C-1.33 9 -1.66 9 -2 9 C-2 7.02 -2 5.04 -2 3 C-1.34 3 -0.68 3 0 3 C0 2.01 0 1.02 0 0 Z " fill="#EF9399" transform="translate(174,233)"/>
<path d="M0 0 C0.99 0 1.98 0 3 0 C1.25 5.75 1.25 5.75 -1 8 C-0.67 5.36 -0.34 2.72 0 0 Z " fill="#EC8386" transform="translate(181,217)"/>
<path d="M0 0 C0.66 0 1.32 0 2 0 C1.25 6.75 1.25 6.75 -1 9 C-0.67 6.03 -0.34 3.06 0 0 Z " fill="#EB7C7D" transform="translate(207,163)"/>
<path d="M0 0 C0.66 0 1.32 0 2 0 C2 0.66 2 1.32 2 2 C2.99 2 3.98 2 5 2 C5.33 3.32 5.66 4.64 6 6 C5.01 6 4.02 6 3 6 C0 2.66666667 0 2.66666667 0 0 Z " fill="#EE666F" transform="translate(269,68)"/>
<path d="" fill="#FFFFFF" transform="translate(0,0)"/>
<path d="" fill="#FFFFFF" transform="translate(0,0)"/>
<path d="" fill="#FFFFFF" transform="translate(0,0)"/>
<path d="" fill="#FFFFFF" transform="translate(0,0)"/>
<path d="" fill="#FFFFFF" transform="translate(0,0)"/>
<path d="" fill="#FFFFFF" transform="translate(0,0)"/>
<path d="" fill="#FFFFFF" transform="translate(0,0)"/>
<path d="" fill="#FFFFFF" transform="translate(0,0)"/>
<path d="" fill="#FFFFFF" transform="translate(0,0)"/>
<path d="" fill="#FFFFFF" transform="translate(0,0)"/>
<path d="" fill="#FFFFFF" transform="translate(0,0)"/>
<path d="" fill="#FFFFFF" transform="translate(0,0)"/>
<path d="" fill="#FFFFFF" transform="translate(0,0)"/>
<path d="" fill="#FFFFFF" transform="translate(0,0)"/>
<path d="" fill="#FFFFFF" transform="translate(0,0)"/>
<path d="" fill="#FFFFFF" transform="translate(0,0)"/>
<path d="" fill="#FFFFFF" transform="translate(0,0)"/>
<path d="" fill="#FFFFFF" transform="translate(0,0)"/>
<path d="" fill="#FFFFFF" transform="translate(0,0)"/>
<path d="" fill="#FFFFFF" transform="translate(0,0)"/>
<path d="" fill="#FFFFFF" transform="translate(0,0)"/>
<path d="" fill="#FFFFFF" transform="translate(0,0)"/>
<path d="" fill="#FFFFFF" transform="translate(0,0)"/>
<path d="" fill="#FFFFFF" transform="translate(0,0)"/>
<path d="" fill="#FFFFFF" transform="translate(0,0)"/>
<path d="" fill="#FFFFFF" transform="translate(0,0)"/>
<path d="" fill="#FFFFFF" transform="translate(0,0)"/>
<path d="" fill="#FFFFFF" transform="translate(0,0)"/>
<path d="" fill="#FFFFFF" transform="translate(0,0)"/>
<path d="" fill="#FFFFFF" transform="translate(0,0)"/>
<path d="" fill="#FFFFFF" transform="translate(0,0)"/>
<path d="" fill="#FFFFFF" transform="translate(0,0)"/>
<path d="" fill="#FFFFFF" transform="translate(0,0)"/>
<path d="" fill="#FFFFFF" transform="translate(0,0)"/>
<path d="" fill="#FFFFFF" transform="translate(0,0)"/>
<path d="" fill="#FFFFFF" transform="translate(0,0)"/>
<path d="" fill="#FFFFFF" transform="translate(0,0)"/>
<path d="" fill="#FFFFFF" transform="translate(0,0)"/>
<path d="" fill="#FFFFFF" transform="translate(0,0)"/>
<path d="" fill="#FFFFFF" transform="translate(0,0)"/>
<path d="" fill="#FFFFFF" transform="translate(0,0)"/>
<path d="" fill="#FFFFFF" transform="translate(0,0)"/>
<path d="" fill="#FFFFFF" transform="translate(0,0)"/>
<path d="" fill="#FFFFFF" transform="translate(0,0)"/>
<path d="" fill="#FFFFFF" transform="translate(0,0)"/>
<path d="" fill="#FFFFFF" transform="translate(0,0)"/>
<path d="" fill="#FFFFFF" transform="translate(0,0)"/>
<path d="" fill="#FFFFFF" transform="translate(0,0)"/>
<path d="" fill="#FFFFFF" transform="translate(0,0)"/>
<path d="" fill="#FFFFFF" transform="translate(0,0)"/>
<path d="" fill="#FFFFFF" transform="translate(0,0)"/>
<path d="" fill="#FFFFFF" transform="translate(0,0)"/>
<path d="" fill="#FFFFFF" transform="translate(0,0)"/>
<path d="" fill="#FFFFFF" transform="translate(0,0)"/>
<path d="" fill="#FFFFFF" transform="translate(0,0)"/>
<path d="" fill="#FFFFFF" transform="translate(0,0)"/>
<path d="" fill="#FFFFFF" transform="translate(0,0)"/>
<path d="" fill="#FFFFFF" transform="translate(0,0)"/>
<path d="" fill="#FFFFFF" transform="translate(0,0)"/>
</svg>
